Coordinates
version=1
nRows=5
nColumns=46
inDegrees=yes

Units are S.I. units (second, meters, Newtons, ...)
Angles are in degrees.

endheader
time	pelvis_tilt	pelvis_list	pelvis_rotation	pelvis_tx	pelvis_ty	pelvis_tz	bb_angle	bb_tx	bb_ty	bb_tz	hip_flexion_r	hip_adduction_r	hip_rotation_r	knee_angle_r	knee_angle_r_beta	ankle_angle_r	subtalar_angle_r	mtp_angle_r	crank_angle_r	hip_flexion_l	hip_adduction_l	hip_rotation_l	knee_angle_l	knee_angle_l_beta	ankle_angle_l	subtalar_angle_l	mtp_angle_l	crank_angle_l	lumbar_extension	lumbar_bending	lumbar_rotation	arm_flex_r	arm_add_r	arm_rot_r	elbow_flex_r	pro_sup_r	wrist_flex_r	wrist_dev_r	arm_flex_l	arm_add_l	arm_rot_l	elbow_flex_l	pro_sup_l	wrist_flex_l	wrist_dev_l
      7.50500000	    -26.87614012	     14.90231945	     10.16115651	      0.29242790	      1.13668021	     -0.25868995	      0.00000000	      0.50000000	      0.00000000	      0.25000000	     31.66212334	    -21.40106485	     -4.19763033	     21.38735867	      0.37327983	    -13.47404633	     -4.87805724	      0.00000000	      0.00000000	     83.80019146	      4.11156264	     -6.67420434	    110.21482999	      1.92361167	    -15.10368708	      3.25414547	      0.00000000	      0.00000000	    -60.23685420	     -7.37541673	      3.01105578	     21.43224464	    -44.34916102	    -11.09096337	    106.21683926	     50.74083319	      0.00000000	      0.00000000	     69.53738868	     -6.83609726	     43.44726168	     69.55883044	     50.85433648	      0.00000000	      0.00000000
      7.51000000	    -27.19177867	     14.82247814	     10.77714315	      0.29205895	      1.13828140	     -0.25699756	      0.00000000	      0.50000000	      0.00000000	      0.25000000	     31.12740072	    -21.60805410	     -4.67038772	     21.14145854	      0.36898806	    -14.56901082	     -4.08538750	      0.00000000	      0.00000000	     84.97638282	      4.11845235	     -6.73818187	    109.99466629	      1.91976909	    -15.23504384	      3.38995938	      0.00000000	      0.00000000	    -60.36479938	     -7.40295503	      2.62775481	     21.48417287	    -44.21262331	    -11.13945755	    106.10326253	     50.71937456	      0.00000000	      0.00000000	     69.99864990	     -6.71962926	     43.32883421	     69.79434853	     50.87470246	      0.00000000	      0.00000000
      7.51500000	    -27.36068601	     14.67230783	     11.67343786	      0.29169158	      1.14064474	     -0.25608555	      0.00000000	      0.50000000	      0.00000000	      0.25000000	     30.39297978	    -21.92811040	     -5.58627622	     21.02478912	      0.36695179	    -15.62012070	     -3.32068610	      0.00000000	      0.00000000	     85.87926934	      4.50963481	     -6.73433599	    109.52432315	      1.91156005	    -15.34795590	      3.45749056	      0.00000000	      0.00000000	    -60.63169575	     -7.02140697	      2.04295625	     21.70439992	    -43.85187480	    -11.34682348	    105.82598084	     50.65612605	      0.00000000	      0.00000000	     70.21750971	     -6.76099834	     43.21926806	     70.15846093	     50.92174178	      0.00000000	      0.00000000
      7.52000000	    -27.59790640	     14.47707621	     12.31068707	      0.29112499	      1.14295672	     -0.25489324	      0.00000000	      0.50000000	      0.00000000	      0.25000000	     30.08509028	    -22.01907212	     -5.95404309	     21.31576807	      0.37203034	    -16.58200447	     -2.97632839	      0.00000000	      0.00000000	     86.73298669	      4.72122571	     -6.75445344	    109.02689573	      1.90287830	    -15.05834155	      3.40230746	      0.00000000	      0.00000000	    -60.90044035	     -6.77375362	      1.74113121	     21.91768098	    -43.66798088	    -11.44449376	    105.67452133	     50.62136946	      0.00000000	      0.00000000	     70.65834615	     -6.71455158	     43.05931174	     70.47333143	     50.95108288	      0.00000000	      0.00000000
      7.52500000	    -27.86854265	     14.37271224	     13.22936905	      0.29025645	      1.14580629	     -0.25424511	      0.00000000	      0.50000000	      0.00000000	      0.25000000	     29.89594092	    -22.37608160	     -6.46552845	     21.89889360	      0.38220780	    -17.55390712	     -2.91416615	      0.00000000	      0.00000000	     87.40725954	      5.29292473	     -6.86069427	    108.20413416	      1.88851841	    -14.72981770	      3.45711567	      0.00000000	      0.00000000	    -61.15384377	     -6.35438120	      1.01325848	     22.53877500	    -43.16891734	    -11.65248683	    105.29994315	     50.53903967	      0.00000000	      0.00000000	     70.83573230	     -7.00625362	     42.81991929	     71.22267575	     51.04952351	      0.00000000	      0.00000000
